<?xml version="1.0" encoding="UTF-8" standalone="no"?>
<!-- Created with Inkscape (http://www.inkscape.org/) -->

<svg
   width="512"
   height="512"
   viewBox="0 0 512 512"
   version="1.1"
   id="svg1"
   xml:space="preserve"
   inkscape:version="1.4.2 (ebf0e940d0, 2025-05-08)"
   sodipodi:docname="highbrow01.svg"
   xmlns:inkscape="http://www.inkscape.org/namespaces/inkscape"
   xmlns:sodipodi="http://sodipodi.sourceforge.net/DTD/sodipodi-0.dtd"
   xmlns="http://www.w3.org/2000/svg"
   xmlns:svg="http://www.w3.org/2000/svg"><sodipodi:namedview
     id="namedview1"
     pagecolor="#ffffff"
     bordercolor="#000000"
     borderopacity="0.25"
     inkscape:showpageshadow="2"
     inkscape:pageopacity="0.0"
     inkscape:pagecheckerboard="0"
     inkscape:deskcolor="#d1d1d1"
     inkscape:document-units="px"
     inkscape:zoom="1.4337165"
     inkscape:cx="283.87759"
     inkscape:cy="342.46658"
     inkscape:window-width="2315"
     inkscape:window-height="1297"
     inkscape:window-x="0"
     inkscape:window-y="0"
     inkscape:window-maximized="0"
     inkscape:current-layer="svg1" /><defs
     id="defs1" /><rect
     style="display:inline;fill:#1a1a2e;fill-opacity:1"
     id="rect2"
     width="512"
     height="512"
     x="0"
     y="0"
     inkscape:label="bg"
     rx="80" /><path
     style="display:inline;fill:#d4af37;fill-opacity:1;stroke-width:3.36632"
     d="m 401.89624,494.37205 c 0.75065,-0.90447 1.15559,-17.01289 1.47855,-58.81442 0.25921,-33.53941 0.80253,-58.50987 1.30196,-59.82345 1.2174,-3.20197 1.06207,-9.77155 -0.25618,-10.83349 -2.19911,-1.77153 -6.49474,-2.07281 -9.80916,-0.68798 -5.92274,2.47469 -6.2283,2.23275 -9.39944,-7.44189 -4.64815,-14.18087 -12.44458,-24.24119 -24.42936,-31.52308 -8.03797,-4.88382 -15.518,-7.0069 -26.53382,-7.5311 -16.61206,-0.79055 -29.28434,4.06436 -40.80214,15.63175 -11.78943,11.84023 -16.24314,21.53184 -16.85807,36.68442 -0.98327,24.22927 9.77772,44.0084 29.35981,53.96466 10.64118,5.41036 27.70335,7.52612 39.01978,4.83852 10.46104,-2.48441 22.40334,-9.56224 28.94134,-17.15259 4.43813,-5.15249 10.59836,-18.23405 12.81051,-27.20368 1.0003,-4.05598 2.05907,-7.76341 2.35282,-8.2387 0.93611,-1.51468 4.77907,-0.93998 5.74167,0.85865 0.60789,1.13586 0.922,21.06267 0.922,58.49155 0,51.57407 0.13499,56.91787 1.47404,58.39764 1.76338,1.94849 3.28338,2.07281 4.68562,0.38319 z m -82.96953,-79.75382 c -16.25072,-5.19494 -28.08314,-20.44616 -29.7463,-38.34099 -1.97122,-21.20951 14.53796,-41.17833 36.86102,-44.58558 17.48195,-2.66835 35.12989,6.00575 43.30547,21.28494 12.77819,23.88082 0.31745,54.50809 -25.20833,61.95907 -6.58648,1.92261 -18.68096,1.77032 -25.21186,-0.31744 z M 300.43459,299.30337 c 28.64922,-2.83347 61.44766,-9.65243 84.28943,-17.5242 12.18063,-4.1977 29.34537,-12.33178 37.73273,-17.88089 9.66714,-6.39588 20.02221,-16.98929 23.60243,-24.14568 1.71477,-3.42763 3.11775,-6.99966 3.11775,-7.93792 0,-7.09715 -12.08792,-15.86821 -21.86894,-15.86821 -7.85127,0 -48.19869,13.58092 -47.90572,16.12506 0.0788,0.68366 0.40218,2.44546 0.71875,3.91506 1.15828,5.37713 -5.66775,12.49404 -17.78469,18.54254 -24.1925,12.07635 -61.91614,18.53372 -109.10736,18.67649 -18.51698,0.0559 -25.47021,-0.29119 -37.64387,-1.88076 -38.31958,-5.003 -65.99261,-14.07426 -77.64724,-25.4528 -5.48163,-5.35177 -6.68164,-8.79242 -4.52272,-12.9673 l 1.43064,-2.76655 -2.93282,-1.21022 c -1.61306,-0.66563 -8.94487,-3.28409 -16.29291,-5.81882 -25.149044,-8.67532 -34.628204,-9.93022 -43.104324,-5.70639 -6.54309,3.26058 -10.19613,8.35905 -9.6365,13.44946 1.46706,13.34437 18.68147,30.23358 43.386554,42.56694 27.57912,13.76815 67.55463,23.14292 115.54107,27.09589 14.53709,1.19754 61.60133,0.47223 78.62774,-1.2117 z m -10.24274,-86.95674 c 33.02554,-2.81017 64.56992,-9.34794 80.9596,-16.77936 l 5.83831,-2.64721 -0.46586,-6.74136 c -1.08106,-15.64446 2.29061,-66.84007 5.88298,-89.32739 2.12284,-13.28842 6.56726,-33.374307 9.51626,-43.007248 1.72463,-5.633502 3.32269,-10.897406 3.55127,-11.697564 0.26055,-0.911472 -0.69417,-2.293913 -2.55582,-3.701466 -18.45616,-13.954443 -68.73571,-22.033434 -136.89376,-21.996286 -55.75695,0.0303 -96.82194,5.068199 -122.69507,15.0521 -8.12531,3.135388 -17.26438,8.587103 -17.26438,10.298699 0,0.64805 1.39849,6.280937 3.10774,12.517522 4.77763,17.432153 9.70114,44.483041 12.39644,68.108783 1.41919,12.43997 3.41789,52.4462 3.09639,61.97779 -0.10055,2.98104 0.0805,5.84614 0.40235,6.36689 0.95066,1.53819 15.33353,7.22214 26.39384,10.43055 17.68535,5.1302 42.79539,9.52012 63.65578,11.12875 13.47168,1.03885 52.94272,1.04905 65.07393,0.0168 z"
     id="path1"
     sodipodi:nodetypes="sssssssssssssssssssssssssssssssssssccsscssssssssscssscscssssssssss"
     inkscape:label="hat" /></svg>
